<svg width="22" height="22" viewBox="0 0 22 22" fill="none" xmlns="http://www.w3.org/2000/svg">
<circle cx="11" cy="11" r="11" fill="white"/>
<path d="M15.3206 11.8575L10.6331 16.5L5.94562 11.8575C5.63644 11.5566 5.3929 11.195 5.23034 10.7954C5.06778 10.3958 4.98972 9.96683 5.00108 9.53557C5.01244 9.10431 5.11297 8.68007 5.29635 8.28957C5.47972 7.89907 5.74196 7.55077 6.06655 7.2666C6.39115 6.98243 6.77106 6.76854 7.18238 6.63841C7.5937 6.50828 8.0275 6.46473 8.45648 6.51049C8.88545 6.55625 9.30031 6.69034 9.67492 6.9043C10.0495 7.11827 10.3758 7.40749 10.6331 7.75374C10.8916 7.41 11.2182 7.12331 11.5926 6.91162C11.9669 6.69992 12.3809 6.56777 12.8087 6.52344C13.2365 6.47911 13.6688 6.52355 14.0786 6.65398C14.4884 6.78442 14.8669 6.99803 15.1903 7.28147C15.5138 7.5649 15.7753 7.91204 15.9584 8.30117C16.1415 8.6903 16.2423 9.11304 16.2546 9.54293C16.2668 9.97282 16.1902 10.4006 16.0295 10.7995C15.8688 11.1984 15.6274 11.5599 15.3206 11.8612" stroke="black" stroke-linecap="round" stroke-linejoin="round"/>
</svg>
