<svg width="15" height="15" viewBox="0 0 15 15" fill="none" xmlns="http://www.w3.org/2000/svg">
<path d="M0.9375 11.5625V2.5M0.9375 11.5625C0.9375 11.5625 0.9375 13.4375 0 13.4375M0.9375 11.5625H14.0625M14.0625 11.5625C14.0625 11.5625 14.0625 13.4375 15 13.4375M14.0625 11.5625V8.125C14.0625 7.54484 13.832 6.98844 13.4218 6.5782C13.0116 6.16797 12.4552 5.9375 11.875 5.9375H6.5625V8.4375M0.9375 9.6875H14.0625M5.3125 7.125C5.3125 7.125 4.6875 8.125 3.90625 8.125C3.61617 8.125 3.33797 8.00977 3.13285 7.80465C2.92773 7.59953 2.8125 7.32133 2.8125 7.03125C2.8125 6.4275 3.3025 5.94 3.90625 5.94C4.6875 5.94 5.3125 6.9375 5.3125 6.9375V7.125Z" stroke="black"/>
</svg>
