<svg width="22" height="22" viewBox="0 0 22 22" fill="none" xmlns="http://www.w3.org/2000/svg">
<path d="M22 11C22 17.0751 17.0751 22 11 22C4.92487 22 0 17.0751 0 11C0 4.92487 4.92487 0 11 0C17.0751 0 22 4.92487 22 11Z" fill="white"/>
<path d="M6.7803 6.39513C8.87893 5.34604 10.6042 6.62007 11.279 7.5198C11.9538 6.62007 13.679 5.34604 15.7777 6.39513C18.4769 7.74474 17.8021 11.1187 15.7777 13.1431C14.7897 14.1311 13.0501 15.8707 11.7779 16.8384C11.6358 16.9463 11.4614 17.0032 11.283 16.9999C11.1045 16.9965 10.9324 16.9331 10.7945 16.8199C9.62796 15.8783 7.75427 14.1171 6.7803 13.1431C4.7559 11.1187 4.0811 7.74474 6.7803 6.39513Z" fill="#F8312F"/>
<path d="M11.279 7.51964V8.89173C11.8503 7.68384 13.2696 6.07106 15.6238 6.32164C13.5949 5.40841 11.9371 6.64194 11.279 7.51964ZM9.45522 6.18668C8.69674 5.92261 7.78126 5.89426 6.7803 6.39497C4.0811 7.74457 4.7559 11.1186 6.7803 13.143C7.75427 14.1169 9.62796 15.8782 10.7945 16.8197C10.9325 16.9329 11.1046 16.9962 11.2831 16.9995C11.4615 17.0027 11.6358 16.9458 11.7779 16.8377C11.8921 16.7509 12.01 16.6578 12.131 16.5597C10.8471 15.5957 9.04494 14.0769 8.06647 13.2028C5.83648 11.2094 5.09285 7.88763 8.06647 6.55872C8.50565 6.35882 8.97492 6.2331 9.45522 6.18668Z" fill="#CA0B4A"/>
<path d="M13.5672 11.224C14.1775 11.5764 15.1536 11.028 15.7475 9.9993C16.3415 8.97058 16.3283 7.85103 15.7181 7.49872C15.1078 7.14641 14.1317 7.69475 13.5378 8.72347C12.9438 9.75219 12.957 10.8717 13.5672 11.224Z" fill="#F37366"/>
</svg>
