<svg width="109" height="15" viewBox="0 0 109 15" fill="none" xmlns="http://www.w3.org/2000/svg">
<g clip-path="url(#clip0_184_53)">
<path d="M5.3164 2.56484L6.36796 4.96328C6.40752 5.05355 6.47058 5.13154 6.55056 5.18912C6.63053 5.2467 6.7245 5.28175 6.82265 5.29063L9.38437 5.52031C9.67421 5.5625 9.78984 5.91797 9.57968 6.12266L7.65 7.74375C7.49375 7.875 7.42265 8.08125 7.46562 8.28047L8.02656 10.9063C8.07578 11.1945 7.77343 11.4148 7.51406 11.2781L5.27812 9.96875C5.19379 9.91925 5.09778 9.89316 5 9.89316C4.90221 9.89316 4.8062 9.91925 4.72187 9.96875L2.48593 11.2773C2.22734 11.4133 1.92421 11.1938 1.97343 10.9055L2.53437 8.27969C2.57656 8.08047 2.50625 7.87422 2.35 7.74297L0.419527 6.12344C0.210152 5.91953 0.325777 5.56328 0.61484 5.52109L3.17656 5.29141C3.27471 5.28253 3.36868 5.24748 3.44866 5.1899C3.52863 5.13232 3.59169 5.05433 3.63125 4.96406L4.68281 2.56563C4.81328 2.30313 5.18671 2.30313 5.3164 2.56484Z" fill="#FFC107"/>
<path d="M5.23984 5.10704L5.06172 3.33985C5.05469 3.24141 5.03437 3.07266 5.19219 3.07266C5.31719 3.07266 5.38516 3.33282 5.38516 3.33282L5.91953 4.75157C6.12109 5.29141 6.03828 5.47657 5.84375 5.58594C5.62031 5.71094 5.29062 5.61329 5.23984 5.10704Z" fill="#FFFF8D"/>
<path d="M7.44377 7.58671L8.97658 6.39062C9.05237 6.32734 9.18908 6.22656 9.07971 6.11171C8.99299 6.02109 8.75862 6.15156 8.75862 6.15156L7.41721 6.67577C7.01721 6.81406 6.75158 7.01874 6.72815 7.27656C6.69768 7.62031 7.00627 7.88515 7.44377 7.58671Z" fill="#FFC107"/>
</g>
<g clip-path="url(#clip1_184_53)">
<path d="M5.3164 2.56484L6.36796 4.96328C6.40752 5.05355 6.47058 5.13154 6.55056 5.18912C6.63053 5.2467 6.7245 5.28175 6.82265 5.29063L9.38437 5.52031C9.67421 5.5625 9.78984 5.91797 9.57968 6.12266L7.65 7.74375C7.49375 7.875 7.42265 8.08125 7.46562 8.28047L8.02656 10.9063C8.07578 11.1945 7.77343 11.4148 7.51406 11.2781L5.27812 9.96875C5.19379 9.91925 5.09778 9.89316 5 9.89316C4.90221 9.89316 4.8062 9.91925 4.72187 9.96875L2.48593 11.2773C2.22734 11.4133 1.92421 11.1938 1.97343 10.9055L2.53437 8.27969C2.57656 8.08047 2.50625 7.87422 2.35 7.74297L0.419527 6.12344C0.210152 5.91953 0.325777 5.56328 0.61484 5.52109L3.17656 5.29141C3.27471 5.28253 3.36868 5.24748 3.44866 5.1899C3.52863 5.13232 3.59169 5.05433 3.63125 4.96406L4.68281 2.56563C4.81328 2.30313 5.18671 2.30313 5.3164 2.56484Z" fill="#FFC107"/>
<path d="M5.23984 5.10704L5.06172 3.33985C5.05469 3.24141 5.03437 3.07266 5.19219 3.07266C5.31719 3.07266 5.38516 3.33282 5.38516 3.33282L5.91953 4.75157C6.12109 5.29141 6.03828 5.47657 5.84375 5.58594C5.62031 5.71094 5.29062 5.61329 5.23984 5.10704Z" fill="#FFFF8D"/>
<path d="M7.44377 7.58671L8.97658 6.39062C9.05237 6.32734 9.18908 6.22656 9.07971 6.11171C8.99299 6.02109 8.75862 6.15156 8.75862 6.15156L7.41721 6.67577C7.01721 6.81406 6.75158 7.01874 6.72815 7.27656C6.69768 7.62031 7.00627 7.88515 7.44377 7.58671Z" fill="#FFC107"/>
</g>
<g clip-path="url(#clip2_184_53)">
<path d="M16.3164 2.56484L17.368 4.96328C17.4075 5.05355 17.4706 5.13154 17.5506 5.18912C17.6305 5.2467 17.7245 5.28175 17.8227 5.29063L20.3844 5.52031C20.6742 5.5625 20.7898 5.91797 20.5797 6.12266L18.65 7.74375C18.4937 7.875 18.4227 8.08125 18.4656 8.28047L19.0266 10.9063C19.0758 11.1945 18.7734 11.4148 18.5141 11.2781L16.2781 9.96875C16.1938 9.91925 16.0978 9.89316 16 9.89316C15.9022 9.89316 15.8062 9.91925 15.7219 9.96875L13.4859 11.2773C13.2273 11.4133 12.9242 11.1938 12.9734 10.9055L13.5344 8.27969C13.5766 8.08047 13.5062 7.87422 13.35 7.74297L11.4195 6.12344C11.2102 5.91953 11.3258 5.56328 11.6148 5.52109L14.1766 5.29141C14.2747 5.28253 14.3687 5.24748 14.4487 5.1899C14.5286 5.13232 14.5917 5.05433 14.6312 4.96406L15.6828 2.56563C15.8133 2.30313 16.1867 2.30313 16.3164 2.56484Z" fill="#FFC107"/>
<path d="M16.2398 5.10704L16.0617 3.33985C16.0547 3.24141 16.0344 3.07266 16.1922 3.07266C16.3172 3.07266 16.3852 3.33282 16.3852 3.33282L16.9195 4.75157C17.1211 5.29141 17.0383 5.47657 16.8437 5.58594C16.6203 5.71094 16.2906 5.61329 16.2398 5.10704Z" fill="#FFFF8D"/>
<path d="M18.4438 7.58671L19.9766 6.39062C20.0524 6.32734 20.1891 6.22656 20.0797 6.11171C19.993 6.02109 19.7586 6.15156 19.7586 6.15156L18.4172 6.67577C18.0172 6.81406 17.7516 7.01874 17.7281 7.27656C17.6977 7.62031 18.0063 7.88515 18.4438 7.58671Z" fill="#FFC107"/>
</g>
<g clip-path="url(#clip3_184_53)">
<path d="M27.3164 2.56484L28.368 4.96328C28.4075 5.05355 28.4706 5.13154 28.5506 5.18912C28.6305 5.2467 28.7245 5.28175 28.8227 5.29063L31.3844 5.52031C31.6742 5.5625 31.7898 5.91797 31.5797 6.12266L29.65 7.74375C29.4937 7.875 29.4227 8.08125 29.4656 8.28047L30.0266 10.9063C30.0758 11.1945 29.7734 11.4148 29.5141 11.2781L27.2781 9.96875C27.1938 9.91925 27.0978 9.89316 27 9.89316C26.9022 9.89316 26.8062 9.91925 26.7219 9.96875L24.4859 11.2773C24.2273 11.4133 23.9242 11.1938 23.9734 10.9055L24.5344 8.27969C24.5766 8.08047 24.5062 7.87422 24.35 7.74297L22.4195 6.12344C22.2102 5.91953 22.3258 5.56328 22.6148 5.52109L25.1766 5.29141C25.2747 5.28253 25.3687 5.24748 25.4487 5.1899C25.5286 5.13232 25.5917 5.05433 25.6312 4.96406L26.6828 2.56563C26.8133 2.30313 27.1867 2.30313 27.3164 2.56484Z" fill="#FFC107"/>
<path d="M27.2398 5.10704L27.0617 3.33985C27.0547 3.24141 27.0344 3.07266 27.1922 3.07266C27.3172 3.07266 27.3852 3.33282 27.3852 3.33282L27.9195 4.75157C28.1211 5.29141 28.0383 5.47657 27.8437 5.58594C27.6203 5.71094 27.2906 5.61329 27.2398 5.10704Z" fill="#FFFF8D"/>
<path d="M29.4438 7.58671L30.9766 6.39062C31.0524 6.32734 31.1891 6.22656 31.0797 6.11171C30.993 6.02109 30.7586 6.15156 30.7586 6.15156L29.4172 6.67577C29.0172 6.81406 28.7516 7.01874 28.7281 7.27656C28.6977 7.62031 29.0063 7.88515 29.4438 7.58671Z" fill="#FFC107"/>
</g>
<g clip-path="url(#clip4_184_53)">
<path d="M38.3164 2.56484L39.368 4.96328C39.4075 5.05355 39.4706 5.13154 39.5506 5.18912C39.6305 5.2467 39.7245 5.28175 39.8227 5.29063L42.3844 5.52031C42.6742 5.5625 42.7898 5.91797 42.5797 6.12266L40.65 7.74375C40.4937 7.875 40.4227 8.08125 40.4656 8.28047L41.0266 10.9063C41.0758 11.1945 40.7734 11.4148 40.5141 11.2781L38.2781 9.96875C38.1938 9.91925 38.0978 9.89316 38 9.89316C37.9022 9.89316 37.8062 9.91925 37.7219 9.96875L35.4859 11.2773C35.2273 11.4133 34.9242 11.1938 34.9734 10.9055L35.5344 8.27969C35.5766 8.08047 35.5062 7.87422 35.35 7.74297L33.4195 6.12344C33.2102 5.91953 33.3258 5.56328 33.6148 5.52109L36.1766 5.29141C36.2747 5.28253 36.3687 5.24748 36.4487 5.1899C36.5286 5.13232 36.5917 5.05433 36.6312 4.96406L37.6828 2.56563C37.8133 2.30313 38.1867 2.30313 38.3164 2.56484Z" fill="#FFC107"/>
<path d="M38.2398 5.10704L38.0617 3.33985C38.0547 3.24141 38.0344 3.07266 38.1922 3.07266C38.3172 3.07266 38.3852 3.33282 38.3852 3.33282L38.9195 4.75157C39.1211 5.29141 39.0383 5.47657 38.8437 5.58594C38.6203 5.71094 38.2906 5.61329 38.2398 5.10704Z" fill="#FFFF8D"/>
<path d="M40.4438 7.58671L41.9766 6.39062C42.0524 6.32734 42.1891 6.22656 42.0797 6.11171C41.993 6.02109 41.7586 6.15156 41.7586 6.15156L40.4172 6.67577C40.0172 6.81406 39.7516 7.01874 39.7281 7.27656C39.6977 7.62031 40.0063 7.88515 40.4438 7.58671Z" fill="#FFC107"/>
</g>
<g clip-path="url(#clip5_184_53)">
<path d="M49.3164 2.56484L50.368 4.96328C50.4075 5.05355 50.4706 5.13154 50.5506 5.18912C50.6305 5.2467 50.7245 5.28175 50.8227 5.29063L53.3844 5.52031C53.6742 5.5625 53.7898 5.91797 53.5797 6.12266L51.65 7.74375C51.4937 7.875 51.4227 8.08125 51.4656 8.28047L52.0266 10.9063C52.0758 11.1945 51.7734 11.4148 51.5141 11.2781L49.2781 9.96875C49.1938 9.91925 49.0978 9.89316 49 9.89316C48.9022 9.89316 48.8062 9.91925 48.7219 9.96875L46.4859 11.2773C46.2273 11.4133 45.9242 11.1938 45.9734 10.9055L46.5344 8.27969C46.5766 8.08047 46.5062 7.87422 46.35 7.74297L44.4195 6.12344C44.2102 5.91953 44.3258 5.56328 44.6148 5.52109L47.1766 5.29141C47.2747 5.28253 47.3687 5.24748 47.4487 5.1899C47.5286 5.13232 47.5917 5.05433 47.6312 4.96406L48.6828 2.56563C48.8133 2.30313 49.1867 2.30313 49.3164 2.56484Z" fill="#FFC107"/>
<path d="M49.2398 5.10704L49.0617 3.33985C49.0547 3.24141 49.0344 3.07266 49.1922 3.07266C49.3172 3.07266 49.3852 3.33282 49.3852 3.33282L49.9195 4.75157C50.1211 5.29141 50.0383 5.47657 49.8437 5.58594C49.6203 5.71094 49.2906 5.61329 49.2398 5.10704Z" fill="#FFFF8D"/>
<path d="M51.4438 7.58671L52.9766 6.39062C53.0524 6.32734 53.1891 6.22656 53.0797 6.11171C52.993 6.02109 52.7586 6.15156 52.7586 6.15156L51.4172 6.67577C51.0172 6.81406 50.7516 7.01874 50.7281 7.27656C50.6977 7.62031 51.0063 7.88515 51.4438 7.58671Z" fill="#FFC107"/>
</g>
<path d="M64.17 4.43H60.51V6.99C60.6767 6.75667 60.92 6.56667 61.24 6.42C61.56 6.26667 61.9067 6.19 62.28 6.19C62.8267 6.19 63.2733 6.30333 63.62 6.53C63.9667 6.75 64.2167 7.04 64.37 7.4C64.5233 7.75333 64.6 8.13333 64.6 8.54C64.6 9.00667 64.51 9.43 64.33 9.81C64.1567 10.1833 63.8867 10.48 63.52 10.7C63.16 10.92 62.71 11.03 62.17 11.03C61.4833 11.03 60.9267 10.8533 60.5 10.5C60.0733 10.14 59.8133 9.65667 59.72 9.05H60.41C60.4967 9.49 60.6967 9.83 61.01 10.07C61.3233 10.31 61.71 10.43 62.17 10.43C62.75 10.43 63.1867 10.26 63.48 9.92C63.78 9.57333 63.93 9.11667 63.93 8.55C63.93 7.99667 63.78 7.56667 63.48 7.26C63.18 6.94667 62.75 6.79 62.19 6.79C61.8033 6.79 61.4633 6.88 61.17 7.06C60.8767 7.24 60.66 7.48333 60.52 7.79H59.86V3.82H64.17V4.43ZM65.8219 7.35C65.8219 6.20333 65.9985 5.31333 66.3519 4.68C66.7052 4.04667 67.3385 3.73 68.2519 3.73C69.1652 3.73 69.7985 4.04667 70.1519 4.68C70.5052 5.31333 70.6819 6.20333 70.6819 7.35C70.6819 8.51667 70.5052 9.42 70.1519 10.06C69.7985 10.7 69.1652 11.02 68.2519 11.02C67.3319 11.02 66.6952 10.7 66.3419 10.06C65.9952 9.42 65.8219 8.51667 65.8219 7.35ZM69.9919 7.35C69.9919 6.73 69.9485 6.20667 69.8619 5.78C69.7752 5.35333 69.6052 5.01 69.3519 4.75C69.0985 4.49 68.7319 4.36 68.2519 4.36C67.7719 4.36 67.4052 4.49 67.1519 4.75C66.8985 5.01 66.7285 5.35333 66.6419 5.78C66.5552 6.20667 66.5119 6.73 66.5119 7.35C66.5119 7.99 66.5552 8.52667 66.6419 8.96C66.7285 9.38667 66.8985 9.73 67.1519 9.99C67.4052 10.25 67.7719 10.38 68.2519 10.38C68.7319 10.38 69.0985 10.25 69.3519 9.99C69.6052 9.73 69.7752 9.38667 69.8619 8.96C69.9485 8.52667 69.9919 7.99 69.9919 7.35ZM78.5981 11L76.8681 8.08H75.5781V11H74.8781V4.01H76.9781C77.7581 4.01 78.3481 4.19667 78.7481 4.57C79.1548 4.94333 79.3581 5.43333 79.3581 6.04C79.3581 6.54667 79.2115 6.98 78.9181 7.34C78.6315 7.69333 78.2048 7.92333 77.6381 8.03L79.4381 11H78.5981ZM75.5781 7.51H76.9881C77.5348 7.51 77.9448 7.37667 78.2181 7.11C78.4981 6.84333 78.6381 6.48667 78.6381 6.04C78.6381 5.58 78.5048 5.22667 78.2381 4.98C77.9715 4.72667 77.5515 4.6 76.9781 4.6H75.5781V7.51ZM85.6873 7.99C85.6873 8.23 85.6806 8.41333 85.6673 8.54H81.1373C81.1573 8.95333 81.2573 9.30667 81.4373 9.6C81.6173 9.89333 81.8539 10.1167 82.1473 10.27C82.4406 10.4167 82.7606 10.49 83.1073 10.49C83.5606 10.49 83.9406 10.38 84.2473 10.16C84.5606 9.94 84.7673 9.64333 84.8673 9.27H85.6073C85.4739 9.80333 85.1873 10.24 84.7473 10.58C84.3139 10.9133 83.7673 11.08 83.1073 11.08C82.5939 11.08 82.1339 10.9667 81.7273 10.74C81.3206 10.5067 81.0006 10.18 80.7673 9.76C80.5406 9.33333 80.4273 8.83667 80.4273 8.27C80.4273 7.70333 80.5406 7.20667 80.7673 6.78C80.9939 6.35333 81.3106 6.02667 81.7173 5.8C82.1239 5.57333 82.5873 5.46 83.1073 5.46C83.6273 5.46 84.0806 5.57333 84.4673 5.8C84.8606 6.02667 85.1606 6.33333 85.3673 6.72C85.5806 7.1 85.6873 7.52333 85.6873 7.99ZM84.9773 7.97C84.9839 7.56333 84.9006 7.21667 84.7273 6.93C84.5606 6.64333 84.3306 6.42667 84.0373 6.28C83.7439 6.13333 83.4239 6.06 83.0773 6.06C82.5573 6.06 82.1139 6.22667 81.7473 6.56C81.3806 6.89333 81.1773 7.36333 81.1373 7.97H84.9773ZM88.908 10.32L90.748 5.54H91.488L89.298 11H88.508L86.318 5.54H87.068L88.908 10.32ZM92.7867 4.51C92.6467 4.51 92.5267 4.46 92.4267 4.36C92.3267 4.26 92.2767 4.13667 92.2767 3.99C92.2767 3.84333 92.3267 3.72333 92.4267 3.63C92.5267 3.53 92.6467 3.48 92.7867 3.48C92.9267 3.48 93.0467 3.53 93.1467 3.63C93.2467 3.72333 93.2967 3.84333 93.2967 3.99C93.2967 4.13667 93.2467 4.26 93.1467 4.36C93.0467 4.46 92.9267 4.51 92.7867 4.51ZM93.1367 5.54V11H92.4367V5.54H93.1367ZM99.6619 7.99C99.6619 8.23 99.6552 8.41333 99.6419 8.54H95.1119C95.1319 8.95333 95.2319 9.30667 95.4119 9.6C95.5919 9.89333 95.8285 10.1167 96.1219 10.27C96.4152 10.4167 96.7352 10.49 97.0819 10.49C97.5352 10.49 97.9152 10.38 98.2219 10.16C98.5352 9.94 98.7419 9.64333 98.8419 9.27H99.5819C99.4485 9.80333 99.1619 10.24 98.7219 10.58C98.2885 10.9133 97.7419 11.08 97.0819 11.08C96.5685 11.08 96.1085 10.9667 95.7019 10.74C95.2952 10.5067 94.9752 10.18 94.7419 9.76C94.5152 9.33333 94.4019 8.83667 94.4019 8.27C94.4019 7.70333 94.5152 7.20667 94.7419 6.78C94.9685 6.35333 95.2852 6.02667 95.6919 5.8C96.0985 5.57333 96.5619 5.46 97.0819 5.46C97.6019 5.46 98.0552 5.57333 98.4419 5.8C98.8352 6.02667 99.1352 6.33333 99.3419 6.72C99.5552 7.1 99.6619 7.52333 99.6619 7.99ZM98.9519 7.97C98.9585 7.56333 98.8752 7.21667 98.7019 6.93C98.5352 6.64333 98.3052 6.42667 98.0119 6.28C97.7185 6.13333 97.3985 6.06 97.0519 6.06C96.5319 6.06 96.0885 6.22667 95.7219 6.56C95.3552 6.89333 95.1519 7.36333 95.1119 7.97H98.9519ZM108.143 5.54L106.433 11H105.733L104.223 6.42L102.713 11H102.003L100.293 5.54H101.003L102.363 10.29L103.893 5.54H104.593L106.103 10.3L107.453 5.54H108.143Z" fill="black"/>
<defs>
<clipPath id="clip0_184_53">
<rect width="10" height="10" fill="white" transform="translate(0 2)"/>
</clipPath>
<clipPath id="clip1_184_53">
<rect width="10" height="10" fill="white" transform="translate(0 2)"/>
</clipPath>
<clipPath id="clip2_184_53">
<rect width="10" height="10" fill="white" transform="translate(11 2)"/>
</clipPath>
<clipPath id="clip3_184_53">
<rect width="10" height="10" fill="white" transform="translate(22 2)"/>
</clipPath>
<clipPath id="clip4_184_53">
<rect width="10" height="10" fill="white" transform="translate(33 2)"/>
</clipPath>
<clipPath id="clip5_184_53">
<rect width="10" height="10" fill="white" transform="translate(44 2)"/>
</clipPath>
</defs>
</svg>
