<svg width="54" height="10" viewBox="0 0 54 10" fill="none" xmlns="http://www.w3.org/2000/svg">
<g clip-path="url(#clip0_128_893)">
<path d="M5.3164 0.564844L6.36796 2.96328C6.40752 3.05355 6.47058 3.13154 6.55056 3.18912C6.63053 3.2467 6.7245 3.28175 6.82265 3.29063L9.38437 3.52031C9.67421 3.5625 9.78984 3.91797 9.57968 4.12266L7.65 5.74375C7.49375 5.875 7.42265 6.08125 7.46562 6.28047L8.02656 8.90625C8.07578 9.19453 7.77343 9.41484 7.51406 9.27813L5.27812 7.96875C5.19379 7.91925 5.09778 7.89316 5 7.89316C4.90221 7.89316 4.8062 7.91925 4.72187 7.96875L2.48593 9.27734C2.22734 9.41328 1.92421 9.19375 1.97343 8.90547L2.53437 6.27969C2.57656 6.08047 2.50625 5.87422 2.35 5.74297L0.419527 4.12344C0.210152 3.91953 0.325777 3.56328 0.61484 3.52109L3.17656 3.29141C3.27471 3.28253 3.36868 3.24748 3.44866 3.1899C3.52863 3.13232 3.59169 3.05433 3.63125 2.96406L4.68281 0.565625C4.81328 0.303125 5.18671 0.303125 5.3164 0.564844Z" fill="#FFC107"/>
<path d="M5.23984 3.10704L5.06172 1.33985C5.05469 1.24141 5.03437 1.07266 5.19219 1.07266C5.31719 1.07266 5.38516 1.33282 5.38516 1.33282L5.91953 2.75157C6.12109 3.29141 6.03828 3.47657 5.84375 3.58594C5.62031 3.71094 5.29062 3.61329 5.23984 3.10704Z" fill="#FFFF8D"/>
<path d="M7.44377 5.58671L8.97658 4.39062C9.05237 4.32734 9.18908 4.22656 9.07971 4.11171C8.99299 4.02109 8.75862 4.15156 8.75862 4.15156L7.41721 4.67577C7.01721 4.81406 6.75158 5.01874 6.72815 5.27656C6.69768 5.62031 7.00627 5.88515 7.44377 5.58671Z" fill="#FFC107"/>
</g>
<g clip-path="url(#clip1_128_893)">
<path d="M5.3164 0.564844L6.36796 2.96328C6.40752 3.05355 6.47058 3.13154 6.55056 3.18912C6.63053 3.2467 6.7245 3.28175 6.82265 3.29063L9.38437 3.52031C9.67421 3.5625 9.78984 3.91797 9.57968 4.12266L7.65 5.74375C7.49375 5.875 7.42265 6.08125 7.46562 6.28047L8.02656 8.90625C8.07578 9.19453 7.77343 9.41484 7.51406 9.27813L5.27812 7.96875C5.19379 7.91925 5.09778 7.89316 5 7.89316C4.90221 7.89316 4.8062 7.91925 4.72187 7.96875L2.48593 9.27734C2.22734 9.41328 1.92421 9.19375 1.97343 8.90547L2.53437 6.27969C2.57656 6.08047 2.50625 5.87422 2.35 5.74297L0.419527 4.12344C0.210152 3.91953 0.325777 3.56328 0.61484 3.52109L3.17656 3.29141C3.27471 3.28253 3.36868 3.24748 3.44866 3.1899C3.52863 3.13232 3.59169 3.05433 3.63125 2.96406L4.68281 0.565625C4.81328 0.303125 5.18671 0.303125 5.3164 0.564844Z" fill="#FFC107"/>
<path d="M5.23984 3.10704L5.06172 1.33985C5.05469 1.24141 5.03437 1.07266 5.19219 1.07266C5.31719 1.07266 5.38516 1.33282 5.38516 1.33282L5.91953 2.75157C6.12109 3.29141 6.03828 3.47657 5.84375 3.58594C5.62031 3.71094 5.29062 3.61329 5.23984 3.10704Z" fill="#FFFF8D"/>
<path d="M7.44377 5.58671L8.97658 4.39062C9.05237 4.32734 9.18908 4.22656 9.07971 4.11171C8.99299 4.02109 8.75862 4.15156 8.75862 4.15156L7.41721 4.67577C7.01721 4.81406 6.75158 5.01874 6.72815 5.27656C6.69768 5.62031 7.00627 5.88515 7.44377 5.58671Z" fill="#FFC107"/>
</g>
<g clip-path="url(#clip2_128_893)">
<path d="M16.3164 0.564844L17.368 2.96328C17.4075 3.05355 17.4706 3.13154 17.5506 3.18912C17.6305 3.2467 17.7245 3.28175 17.8227 3.29063L20.3844 3.52031C20.6742 3.5625 20.7898 3.91797 20.5797 4.12266L18.65 5.74375C18.4937 5.875 18.4227 6.08125 18.4656 6.28047L19.0266 8.90625C19.0758 9.19453 18.7734 9.41484 18.5141 9.27813L16.2781 7.96875C16.1938 7.91925 16.0978 7.89316 16 7.89316C15.9022 7.89316 15.8062 7.91925 15.7219 7.96875L13.4859 9.27734C13.2273 9.41328 12.9242 9.19375 12.9734 8.90547L13.5344 6.27969C13.5766 6.08047 13.5062 5.87422 13.35 5.74297L11.4195 4.12344C11.2102 3.91953 11.3258 3.56328 11.6148 3.52109L14.1766 3.29141C14.2747 3.28253 14.3687 3.24748 14.4487 3.1899C14.5286 3.13232 14.5917 3.05433 14.6312 2.96406L15.6828 0.565625C15.8133 0.303125 16.1867 0.303125 16.3164 0.564844Z" fill="#FFC107"/>
<path d="M16.2398 3.10704L16.0617 1.33985C16.0547 1.24141 16.0344 1.07266 16.1922 1.07266C16.3172 1.07266 16.3852 1.33282 16.3852 1.33282L16.9195 2.75157C17.1211 3.29141 17.0383 3.47657 16.8437 3.58594C16.6203 3.71094 16.2906 3.61329 16.2398 3.10704Z" fill="#FFFF8D"/>
<path d="M18.4438 5.58671L19.9766 4.39062C20.0524 4.32734 20.1891 4.22656 20.0797 4.11171C19.993 4.02109 19.7586 4.15156 19.7586 4.15156L18.4172 4.67577C18.0172 4.81406 17.7516 5.01874 17.7281 5.27656C17.6977 5.62031 18.0063 5.88515 18.4438 5.58671Z" fill="#FFC107"/>
</g>
<g clip-path="url(#clip3_128_893)">
<path d="M27.3164 0.564844L28.368 2.96328C28.4075 3.05355 28.4706 3.13154 28.5506 3.18912C28.6305 3.2467 28.7245 3.28175 28.8227 3.29063L31.3844 3.52031C31.6742 3.5625 31.7898 3.91797 31.5797 4.12266L29.65 5.74375C29.4937 5.875 29.4227 6.08125 29.4656 6.28047L30.0266 8.90625C30.0758 9.19453 29.7734 9.41484 29.5141 9.27813L27.2781 7.96875C27.1938 7.91925 27.0978 7.89316 27 7.89316C26.9022 7.89316 26.8062 7.91925 26.7219 7.96875L24.4859 9.27734C24.2273 9.41328 23.9242 9.19375 23.9734 8.90547L24.5344 6.27969C24.5766 6.08047 24.5062 5.87422 24.35 5.74297L22.4195 4.12344C22.2102 3.91953 22.3258 3.56328 22.6148 3.52109L25.1766 3.29141C25.2747 3.28253 25.3687 3.24748 25.4487 3.1899C25.5286 3.13232 25.5917 3.05433 25.6312 2.96406L26.6828 0.565625C26.8133 0.303125 27.1867 0.303125 27.3164 0.564844Z" fill="#FFC107"/>
<path d="M27.2398 3.10704L27.0617 1.33985C27.0547 1.24141 27.0344 1.07266 27.1922 1.07266C27.3172 1.07266 27.3852 1.33282 27.3852 1.33282L27.9195 2.75157C28.1211 3.29141 28.0383 3.47657 27.8437 3.58594C27.6203 3.71094 27.2906 3.61329 27.2398 3.10704Z" fill="#FFFF8D"/>
<path d="M29.4438 5.58671L30.9766 4.39062C31.0524 4.32734 31.1891 4.22656 31.0797 4.11171C30.993 4.02109 30.7586 4.15156 30.7586 4.15156L29.4172 4.67577C29.0172 4.81406 28.7516 5.01874 28.7281 5.27656C28.6977 5.62031 29.0063 5.88515 29.4438 5.58671Z" fill="#FFC107"/>
</g>
<g clip-path="url(#clip4_128_893)">
<path d="M38.3164 0.564844L39.368 2.96328C39.4075 3.05355 39.4706 3.13154 39.5506 3.18912C39.6305 3.2467 39.7245 3.28175 39.8227 3.29063L42.3844 3.52031C42.6742 3.5625 42.7898 3.91797 42.5797 4.12266L40.65 5.74375C40.4937 5.875 40.4227 6.08125 40.4656 6.28047L41.0266 8.90625C41.0758 9.19453 40.7734 9.41484 40.5141 9.27813L38.2781 7.96875C38.1938 7.91925 38.0978 7.89316 38 7.89316C37.9022 7.89316 37.8062 7.91925 37.7219 7.96875L35.4859 9.27734C35.2273 9.41328 34.9242 9.19375 34.9734 8.90547L35.5344 6.27969C35.5766 6.08047 35.5062 5.87422 35.35 5.74297L33.4195 4.12344C33.2102 3.91953 33.3258 3.56328 33.6148 3.52109L36.1766 3.29141C36.2747 3.28253 36.3687 3.24748 36.4487 3.1899C36.5286 3.13232 36.5917 3.05433 36.6312 2.96406L37.6828 0.565625C37.8133 0.303125 38.1867 0.303125 38.3164 0.564844Z" fill="#FFC107"/>
<path d="M38.2398 3.10704L38.0617 1.33985C38.0547 1.24141 38.0344 1.07266 38.1922 1.07266C38.3172 1.07266 38.3852 1.33282 38.3852 1.33282L38.9195 2.75157C39.1211 3.29141 39.0383 3.47657 38.8437 3.58594C38.6203 3.71094 38.2906 3.61329 38.2398 3.10704Z" fill="#FFFF8D"/>
<path d="M40.4438 5.58671L41.9766 4.39062C42.0524 4.32734 42.1891 4.22656 42.0797 4.11171C41.993 4.02109 41.7586 4.15156 41.7586 4.15156L40.4172 4.67577C40.0172 4.81406 39.7516 5.01874 39.7281 5.27656C39.6977 5.62031 40.0063 5.88515 40.4438 5.58671Z" fill="#FFC107"/>
</g>
<g clip-path="url(#clip5_128_893)">
<path d="M49.3164 0.564844L50.368 2.96328C50.4075 3.05355 50.4706 3.13154 50.5506 3.18912C50.6305 3.2467 50.7245 3.28175 50.8227 3.29063L53.3844 3.52031C53.6742 3.5625 53.7898 3.91797 53.5797 4.12266L51.65 5.74375C51.4937 5.875 51.4227 6.08125 51.4656 6.28047L52.0266 8.90625C52.0758 9.19453 51.7734 9.41484 51.5141 9.27813L49.2781 7.96875C49.1938 7.91925 49.0978 7.89316 49 7.89316C48.9022 7.89316 48.8062 7.91925 48.7219 7.96875L46.4859 9.27734C46.2273 9.41328 45.9242 9.19375 45.9734 8.90547L46.5344 6.27969C46.5766 6.08047 46.5062 5.87422 46.35 5.74297L44.4195 4.12344C44.2102 3.91953 44.3258 3.56328 44.6148 3.52109L47.1766 3.29141C47.2747 3.28253 47.3687 3.24748 47.4487 3.1899C47.5286 3.13232 47.5917 3.05433 47.6312 2.96406L48.6828 0.565625C48.8133 0.303125 49.1867 0.303125 49.3164 0.564844Z" fill="#FFC107"/>
<path d="M49.2398 3.10704L49.0617 1.33985C49.0547 1.24141 49.0344 1.07266 49.1922 1.07266C49.3172 1.07266 49.3852 1.33282 49.3852 1.33282L49.9195 2.75157C50.1211 3.29141 50.0383 3.47657 49.8437 3.58594C49.6203 3.71094 49.2906 3.61329 49.2398 3.10704Z" fill="#FFFF8D"/>
<path d="M51.4438 5.58671L52.9766 4.39062C53.0524 4.32734 53.1891 4.22656 53.0797 4.11171C52.993 4.02109 52.7586 4.15156 52.7586 4.15156L51.4172 4.67577C51.0172 4.81406 50.7516 5.01874 50.7281 5.27656C50.6977 5.62031 51.0063 5.88515 51.4438 5.58671Z" fill="#FFC107"/>
</g>
<defs>
<clipPath id="clip0_128_893">
<rect width="10" height="10" fill="white"/>
</clipPath>
<clipPath id="clip1_128_893">
<rect width="10" height="10" fill="white"/>
</clipPath>
<clipPath id="clip2_128_893">
<rect width="10" height="10" fill="white" transform="translate(11)"/>
</clipPath>
<clipPath id="clip3_128_893">
<rect width="10" height="10" fill="white" transform="translate(22)"/>
</clipPath>
<clipPath id="clip4_128_893">
<rect width="10" height="10" fill="white" transform="translate(33)"/>
</clipPath>
<clipPath id="clip5_128_893">
<rect width="10" height="10" fill="white" transform="translate(44)"/>
</clipPath>
</defs>
</svg>
